<svg width="900px" height="900px" viewBox="0 0 72 72" fill="none" xmlns="http://www.w3.org/2000/svg"><path d="M20.841 35.417h-0.542c-0.216 2.212 -0.52 4.902 -4.337 4.902h-1.757c-1.018 0 -1.062 -0.153 -1.062 -0.869V27.935c0 -0.737 0 -1.041 2.038 -1.041h0.716v-0.65c-0.781 0.065 -2.733 0.065 -3.623 0.065 -0.845 0 -2.537 0 -3.274 -0.065v0.65h0.498c1.671 0 1.713 0.238 1.713 1.019v11.385c0 0.781 -0.043 1.02 -1.713 1.02H9v0.672h11.256z" fill="#000000"/><path d="M20.473 26.221c-0.088 -0.259 -0.131 -0.346 -0.413 -0.346 -0.281 0 -0.346 0.087 -0.433 0.346l-3.492 8.849c-0.152 0.368 -0.412 1.041 -1.756 1.041v0.542h3.361v-0.542c-0.673 0 -1.085 -0.304 -1.085 -0.738 0 -0.108 0.022 -0.152 0.065 -0.304l0.737 -1.864h4.294l0.867 2.212a0.787 0.787 0 0 1 0.087 0.26c0 0.434 -0.824 0.434 -1.236 0.434v0.542h4.273v-0.542h-0.304c-1.019 0 -1.127 -0.152 -1.279 -0.585l-3.687 -9.304zm-0.867 1.541 1.929 4.901h-3.86l1.93 -4.902z" fill="#000000"/><path d="M37.844 26.373h-13.207l-0.39 4.858h0.521c0.304 -3.491 0.628 -4.208 3.904 -4.208 0.389 0 0.954 0 1.17 0.045 0.456 0.085 0.456 0.324 0.456 0.824v11.385c0 0.738 0 1.042 -2.277 1.042h-0.867v0.672c0.889 -0.065 3.079 -0.065 4.077 -0.065s3.231 0 4.121 0.065v-0.672h-0.867c-2.277 0 -2.277 -0.304 -2.277 -1.042v-11.385c0 -0.434 0 -0.738 0.39 -0.825 0.238 -0.043 0.824 -0.043 1.235 -0.043 3.253 0 3.579 0.716 3.881 4.208h0.543z" fill="#000000"/><path d="M49.467 40.297h-0.542c-0.542 3.318 -1.041 4.901 -4.749 4.901h-2.863c-1.019 0 -1.063 -0.152 -1.063 -0.867v-5.769h1.93c2.104 0 2.342 0.694 2.342 2.537h0.542v-5.725h-0.542c0 1.844 -0.238 2.516 -2.342 2.516h-1.93v-5.183c0 -0.716 0.044 -0.866 1.063 -0.866h2.775c3.319 0 3.882 1.193 4.23 4.206h0.541l-0.608 -4.858H36.109v0.65h0.499c1.669 0 1.713 0.238 1.713 1.019V44.179c0 0.781 -0.044 1.019 -1.713 1.019h-0.499v0.672h12.448l0.911 -5.573z" fill="#000000"/><path d="m55.995 32.641 2.971 -4.337c0.456 -0.694 1.193 -1.388 3.123 -1.41v-0.65h-5.162v0.65c0.869 0.022 1.345 0.498 1.345 0.998 0 0.216 -0.044 0.26 -0.196 0.498l-2.473 3.644 -2.775 -4.165c-0.044 -0.064 -0.152 -0.238 -0.152 -0.325 0 -0.26 0.477 -0.629 1.388 -0.65v-0.65c-0.738 0.065 -2.321 0.065 -3.144 0.065 -0.673 0 -2.017 -0.022 -2.819 -0.065v0.65h0.412c1.193 0 1.604 0.152 2.017 0.759l3.968 6.008 -3.535 5.226c-0.304 0.434 -0.954 1.432 -3.123 1.432v0.672h5.162v-0.672c-0.997 -0.022 -1.366 -0.608 -1.366 -0.998 0 -0.196 0.065 -0.281 0.217 -0.521l3.058 -4.533 3.426 5.162c0.044 0.087 0.109 0.173 0.109 0.238 0 0.261 -0.477 0.63 -1.41 0.651v0.672c0.759 -0.065 2.342 -0.065 3.144 -0.065 0.911 0 1.908 0.022 2.819 0.065v-0.672h-0.412c-1.128 0 -1.583 -0.109 -2.038 -0.781l-4.555 -6.896z" fill="#000000"/></svg>