<svg width="32px" height="32px" viewBox="0 0 1.28 1.28" xmlns="http://www.w3.org/2000/svg" version="1.1" xmlns:xlink="http://www.w3.org/1999/xlink"><title>file_type_pine</title><path d="M0.64 1.12H0.129c-0.017 0 -0.035 0.002 -0.045 -0.016 -0.011 -0.019 0.002 -0.032 0.012 -0.046q0.075 -0.105 0.15 -0.21a0.076 0.076 0 0 1 0.025 -0.023q0.081 -0.045 0.162 -0.092a0.022 0.022 0 0 1 0.028 0.001 0.086 0.086 0 0 0 0.1 0.005 0.017 0.017 0 0 1 0.023 0q0.064 0.047 0.128 0.093a0.027 0.027 0 0 1 0.01 0.022 0.092 0.092 0 0 0 0.181 0.012 0.035 0.035 0 0 1 0.019 -0.026c0.02 -0.011 0.04 -0.022 0.058 -0.034 0.012 -0.008 0.019 -0.008 0.028 0.005 0.059 0.084 0.119 0.168 0.179 0.252 0.009 0.012 0.016 0.024 0.008 0.04s-0.022 0.017 -0.038 0.017q-0.259 0 -0.518 0" style="fill:#078340"/><path d="M0.516 0.568a0.089 0.089 0 0 0 -0.09 0.08 0.035 0.035 0 0 1 -0.021 0.031c-0.03 0.016 -0.059 0.033 -0.089 0.05a0.047 0.047 0 0 1 -0.054 -0.017 0.032 0.032 0 0 1 0.001 -0.044q0.091 -0.126 0.181 -0.253L0.608 0.184c0.023 -0.032 0.042 -0.033 0.065 -0.001l0.34 0.477c0.024 0.033 0.021 0.043 -0.014 0.064 -0.032 0.019 -0.065 0.037 -0.096 0.056a0.019 0.019 0 0 1 -0.027 -0.002A0.089 0.089 0 0 0 0.76 0.773a0.018 0.018 0 0 1 -0.026 0q-0.056 -0.042 -0.113 -0.082a0.03 0.03 0 0 1 -0.014 -0.028 0.091 0.091 0 0 0 -0.092 -0.094" style="fill:#00b353"/></svg>