<svg xmlns="http://www.w3.org/2000/svg" viewBox="0 0 200 200" xml:space="preserve" width="200" height="200"><path style="fill:#98f0e7" d="M199.446 89.446C194.173 39.179 151.663 0 100 0 44.772 0 0 44.772 0 100c0 19.12 5.369 36.984 14.677 52.174L100 160.87z"/><path style="fill:#34d8c7" d="m199.446 89.446-54.664-54.664 1.708 20.404L100 8.696V70.85l-4.828 3.888-39.954-39.956v72.133l-40 32.215 13.773 13.773L100 160.87l85.323-8.696C194.631 136.984 200 119.12 200 100c0-3.565-.19-7.085-.554-10.554"/><path style="fill:#d62109" d="M93.478 134.782h13.043v29.565H93.478z"/><path style="fill:#ed3929" d="M93.478 134.782h13.043v29.565H93.478z"/><path style="fill:#ed663e" d="M139.565 134.782H150v29.565h-10.435z"/><path style="fill:#046e4a" d="M104.782 107.826h17.143l-17.143 31.304h40l3.479-52.174-3.479-52.174z"/><path style="fill:#02432c" d="M184.782 107.826h-17.143l17.143 31.304h-40V34.782zM50 100h21.429L50 139.13h50l4.348-65.218L100 8.696z"/><path style="fill:#011911" d="M150 100 100 8.696v130.435h50L128.571 100z"/><path style="fill:#ed663e" d="M50 134.782h10.435v29.565H50z"/><path style="fill:#059866" d="M15.218 107.826h17.143L15.218 139.13h40l3.478-52.174-3.478-52.174z"/><path style="fill:#046e4a" d="M95.218 107.826H78.074l17.143 31.304h-40V34.782zm-80.541 44.348C32.256 180.86 63.891 200 100 200l4.348-23.913L100 152.174z"/><path style="fill:#02432c" d="M100 152.174V200c36.109 0 67.744-19.14 85.323-47.826z"/></svg>